<svg width="12" height="12" viewBox="0 0 12 12" fill="none" xmlns="http://www.w3.org/2000/svg">
<g clip-path="url(#clip0_2201_2)">
<path fill-rule="evenodd" clip-rule="evenodd" d="M9.79901 4.74752C9.97131 5.24832 10.0424 5.77836 10.0083 6.30687C9.97411 6.83537 9.83533 7.35184 9.59999 7.82629C9.36465 8.30074 9.03743 8.72373 8.63732 9.07072C8.23722 9.41772 7.77218 9.6818 7.26921 9.84764C6.76624 10.0135 6.23533 10.0778 5.70731 10.0369C5.17928 9.9959 4.66464 9.8505 4.19325 9.60908C3.72186 9.36766 3.30311 9.03504 2.96129 8.63051C2.61947 8.22597 2.36138 7.75759 2.20201 7.25252C1.88545 6.24932 1.97683 5.16179 2.45636 4.22548C2.93588 3.28916 3.76495 2.57944 4.764 2.25002C5.76306 1.92059 6.85167 1.99799 7.79406 2.46545C8.73646 2.9329 9.45678 3.75278 9.79901 4.74752ZM8.99201 6.22252C9.02123 5.82954 8.97276 5.43465 8.84937 5.0604C8.72598 4.68616 8.53008 4.33988 8.27286 4.04134C8.01564 3.74279 7.70214 3.49784 7.35026 3.32046C6.99837 3.14308 6.61499 3.03674 6.22201 3.00752C5.82903 2.9783 5.43414 3.02677 5.05989 3.15016C4.68565 3.27356 4.33937 3.46945 4.04083 3.72667C3.74229 3.98389 3.49733 4.29739 3.31995 4.64928C3.14257 5.00116 3.03623 5.38454 3.00701 5.77752C2.948 6.57118 3.20669 7.35578 3.72616 7.95871C4.24564 8.56164 4.98335 8.93351 5.77701 8.99252C6.57067 9.05153 7.35527 8.79284 7.9582 8.27337C8.56113 7.75389 8.933 7.01618 8.99201 6.22252Z" fill="#5E95BE"/>
<path fill-rule="evenodd" clip-rule="evenodd" d="M6 7C6.26522 7 6.51957 6.89464 6.70711 6.70711C6.89464 6.51957 7 6.26522 7 6C7 5.73478 6.89464 5.48043 6.70711 5.29289C6.51957 5.10536 6.26522 5 6 5C5.73478 5 5.48043 5.10536 5.29289 5.29289C5.10536 5.48043 5 5.73478 5 6C5 6.26522 5.10536 6.51957 5.29289 6.70711C5.48043 6.89464 5.73478 7 6 7ZM6 8C6.53043 8 7.03914 7.78929 7.41421 7.41421C7.78929 7.03914 8 6.53043 8 6C8 5.46957 7.78929 4.96086 7.41421 4.58579C7.03914 4.21071 6.53043 4 6 4C5.46957 4 4.96086 4.21071 4.58579 4.58579C4.21071 4.96086 4 5.46957 4 6C4 6.53043 4.21071 7.03914 4.58579 7.41421C4.96086 7.78929 5.46957 8 6 8ZM6 1C6.13261 1 6.25979 1.05268 6.35355 1.14645C6.44732 1.24021 6.5 1.36739 6.5 1.5V2.5C6.5 2.63261 6.44732 2.75979 6.35355 2.85355C6.25979 2.94732 6.13261 3 6 3C5.86739 3 5.74021 2.94732 5.64645 2.85355C5.55268 2.75979 5.5 2.63261 5.5 2.5V1.5C5.5 1.36739 5.55268 1.24021 5.64645 1.14645C5.74021 1.05268 5.86739 1 6 1ZM6 9C6.13261 9 6.25979 9.05268 6.35355 9.14645C6.44732 9.24021 6.5 9.36739 6.5 9.5V10.5C6.5 10.6326 6.44732 10.7598 6.35355 10.8536C6.25979 10.9473 6.13261 11 6 11C5.86739 11 5.74021 10.9473 5.64645 10.8536C5.55268 10.7598 5.5 10.6326 5.5 10.5V9.5C5.5 9.36739 5.55268 9.24021 5.64645 9.14645C5.74021 9.05268 5.86739 9 6 9ZM11 6C11 6.13261 10.9473 6.25979 10.8536 6.35355C10.7598 6.44732 10.6326 6.5 10.5 6.5H9.5C9.36739 6.5 9.24021 6.44732 9.14645 6.35355C9.05268 6.25979 9 6.13261 9 6C9 5.86739 9.05268 5.74021 9.14645 5.64645C9.24021 5.55268 9.36739 5.5 9.5 5.5H10.5C10.6326 5.5 10.7598 5.55268 10.8536 5.64645C10.9473 5.74021 11 5.86739 11 6ZM3 6C3 6.13261 2.94732 6.25979 2.85355 6.35355C2.75979 6.44732 2.63261 6.5 2.5 6.5H1.5C1.36739 6.5 1.24021 6.44732 1.14645 6.35355C1.05268 6.25979 1 6.13261 1 6C1 5.86739 1.05268 5.74021 1.14645 5.64645C1.24021 5.55268 1.36739 5.5 1.5 5.5H2.5C2.63261 5.5 2.75979 5.55268 2.85355 5.64645C2.94732 5.74021 3 5.86739 3 6Z" fill="#5E95BE"/>
</g>
<defs>
<clipPath id="clip0_2201_2">
<rect width="12" height="12" fill="white"/>
</clipPath>
</defs>
</svg>
